999
FreeCAD v0.18 16117 (Git)
  0
SECTION
  2
HEADER
  9
$ACADVER
  1
AC1014
  9
$ACADMAINTVER
 70
     9
  9
$DWGCODEPAGE
  3
ANSI_1252
  9
$TEXTSTYLE
  7
STANDARD
  9
$DIMSTYLE
  2
STANDARD
  9
$DIMTXSTY
  7
STANDARD
  9
$CMLSTYLE
  2
STANDARD
  9
$HANDSEED
  5
FFF
  0
ENDSEC
  0
SECTION
  2
CLASSES
  0
CLASS
  1
ACDBDICTIONARYWDFLT
  2
AcDbDictionaryWithDefault
  3
ObjectDBX Classes
 90
        0
280
     0
281
     0
  0
CLASS
  1
XRECORD
  2
AcDbXrecord
  3
ObjectDBX Classes
 90
        0
280
     0
281
     0
  0
CLASS
  1
LWPOLYLINE
  2
AcDbPolyline
  3
ObjectDBX Classes
 90
        0
280
     0
281
     1
  0
ENDSEC
  0
SECTION
  2
TABLES
  0
TABLE
  2
VPORT
  5
20
330
0
100
AcDbSymbolTable
 70
     1
  0
VPORT
  5
21
330
20
100
AcDbSymbolTableRecord
100
AcDbViewportTableRecord
  2
*ACTIVE
 70
     0
  0
ENDTAB
  0
TABLE
  2
LTYPE
  5
22
330
0
100
AcDbSymbolTable
 70
     1
  0
LTYPE
  5
23
330
21
100
AcDbSymbolTableRecord
100
AcDbLinetypeTableRecord
  2
BYBLOCK
 70
     0
  3

 72
    65
 73
     0
 40
0.0
  0
LTYPE
  5
24
330
21
100
AcDbSymbolTableRecord
100
AcDbLinetypeTableRecord
  2
BYLAYER
 70
     0
  3

 72
    65
 73
     0
 40
0.0
  0
LTYPE
  5
25
330
21
100
AcDbSymbolTableRecord
100
AcDbLinetypeTableRecord
  2
CONTINUOUS
 70
     0
  3
Solid line
 72
    65
 73
     0
 40
0.0
  0
ENDTAB
  0
TABLE
  2
LAYER
  5
31
330
0
100
AcDbSymbolTable
 70
11
  0
LAYER
  5
32
330
31
100
AcDbSymbolTableRecord
100
AcDbLayerTableRecord
  2
0
 70
   0
 62
   7
  6
CONTINUOUS
  0
LAYER
  5
33
330
31
100
AcDbSymbolTableRecord
100
AcDbLayerTableRecord
  2
View
 70
    0
 62
    7
  6
CONTINUOUS
  0
LAYER
  5
34
330
31
100
AcDbSymbolTableRecord
100
AcDbLayerTableRecord
  2
View001
 70
    0
 62
    7
  6
CONTINUOUS
  0
LAYER
  5
35
330
31
100
AcDbSymbolTableRecord
100
AcDbLayerTableRecord
  2
View002
 70
    0
 62
    7
  6
CONTINUOUS
  0
LAYER
  5
36
330
31
100
AcDbSymbolTableRecord
100
AcDbLayerTableRecord
  2
View003
 70
    0
 62
    7
  6
CONTINUOUS
  0
LAYER
  5
37
330
31
100
AcDbSymbolTableRecord
100
AcDbLayerTableRecord
  2
View004
 70
    0
 62
    7
  6
CONTINUOUS
  0
LAYER
  5
38
330
31
100
AcDbSymbolTableRecord
100
AcDbLayerTableRecord
  2
View005
 70
    0
 62
    7
  6
CONTINUOUS
  0
LAYER
  5
39
330
31
100
AcDbSymbolTableRecord
100
AcDbLayerTableRecord
  2
View006
 70
    0
 62
    7
  6
CONTINUOUS
  0
LAYER
  5
3A
330
31
100
AcDbSymbolTableRecord
100
AcDbLayerTableRecord
  2
View007
 70
    0
 62
    7
  6
CONTINUOUS
  0
LAYER
  5
3B
330
31
100
AcDbSymbolTableRecord
100
AcDbLayerTableRecord
  2
View008
 70
    0
 62
    7
  6
CONTINUOUS
  0
LAYER
  5
3C
330
31
100
AcDbSymbolTableRecord
100
AcDbLayerTableRecord
  2
View009
 70
    0
 62
    7
  6
CONTINUOUS
  0
ENDTAB
  0
TABLE
  2
STYLE
  5
60
330
0
100
AcDbSymbolTable
 70
     2
  0
STYLE
  5
61
330
60
100
AcDbSymbolTableRecord
100
AcDbTextStyleTableRecord
  2
STANDARD
 70
     0
 40
0.0
 41
1.0
 50
0.0
 71
     0
 42
2.5
  3
arial.ttf
  4

  0
STYLE
  5
62
330
60
100
AcDbSymbolTableRecord
100
AcDbTextStyleTableRecord
  2
ANNOTATIVE
 70
     0
 40
0.0
 41
1.0
 50
0.0
 71
     0
 42
2.5
  3
arial.ttf
  4

  0
ENDTAB
  0
TABLE
  2
VIEW
  5
63
330
0
100
AcDbSymbolTable
 70
     0
  0
ENDTAB
  0
TABLE
  2
UCS
  5
64
330
0
100
AcDbSymbolTable
 70
     0
  0
ENDTAB
  0
TABLE
  2
APPID
  5
65
330
0
100
AcDbSymbolTable
 70
     2
  0
APPID
  5
66
330
65
100
AcDbSymbolTableRecord
100
AcDbRegAppTableRecord
  2
ACAD
 70
     0
  0
APPID
  5
67
330
65
100
AcDbSymbolTableRecord
100
AcDbRegAppTableRecord
  2
ACADANNOTATIVE
 70
     0
  0
ENDTAB
  0
TABLE
  2
DIMSTYLE
  5
68
330
0
100
AcDbSymbolTable
 70
     2
  0
DIMSTYLE
105
69
330
68
100
AcDbSymbolTableRecord
100
AcDbDimStyleTableRecord
  2
STANDARD
 70
     0
  3

  4

  5

  6

  7

 40
0.0
 41
2.5
 42
0.625
 43
3.75
 44
1.25
 45
0.0
 46
0.0
 47
0.0
 48
0.0
140
2.5
141
2.5
142
0.0
143
0.03937007874016
144
1.0
145
0.0
146
1.0
147
0.625
 71
     0
 72
     0
 73
     0
 74
     0
 75
     0
 76
     0
 77
     1
 78
     8
170
     0
171
     3
172
     1
173
     0
174
     0
175
     0
176
     0
177
     0
178
     0
270
     2
271
     2
272
     2
273
     2
274
     3
340
61
275
     0
280
     0
281
     0
282
     0
283
     0
284
     8
285
     0
286
     0
287
     3
288
     0
  0
ENDTAB
  0
TABLE
  2
BLOCK_RECORD
  5
111
330
0
100
AcDbSymbolTable
  70
5
  0
BLOCK_RECORD
  5
112
330
111
100
AcDbSymbolTableRecord
100
AcDbBlockTableRecord
  2
*MODEL_SPACE
  0
BLOCK_RECORD
  5
113
330
111
100
AcDbSymbolTableRecord
100
AcDbBlockTableRecord
  2
*PAPER_SPACE
  0
ENDTAB
  0
ENDSEC
  0
SECTION
  2
BLOCKS
  0
BLOCK
  5
211
330
112
100
AcDbEntity
  8
0
100
AcDbBlockBegin
  2
*MODEL_SPACE
 70
   0
 10
0
 20
0
 30
0
  3
*MODEL_SPACE
  1
 
  0
ENDBLK
  5
212
330
112
100
AcDbEntity
  8
0
100
AcDbBlockEnd
  0
BLOCK
  5
213
330
113
100
AcDbEntity
 67
1
  8
0
100
AcDbBlockBegin
  2
*PAPER_SPACE
 70
   0
 10
0
 20
0
 30
0
  3
*PAPER_SPACE
  1
 
  0
ENDBLK
  5
214
330
113
100
AcDbEntity
 67
    1
  8
0
100
AcDbBlockEnd
  0
ENDSEC
  0
SECTION
  2
ENTITIES
  0
LINE
  5
301
330
112
100
AcDbEntity
  8
View
100
AcDbLine
 10
624.557
 20
383.017
 30
0
 11
573.631
 21
383.017
 31
0
  0
LINE
  5
302
330
112
100
AcDbEntity
  8
View
100
AcDbLine
 10
573.631
 20
459.117
 30
0
 11
576.181
 21
459.117
 31
0
  0
LINE
  5
303
330
112
100
AcDbEntity
  8
View
100
AcDbLine
 10
573.631
 20
459.117
 30
0
 11
573.631
 21
440.379
 31
0
  0
LINE
  5
304
330
112
100
AcDbEntity
  8
View
100
AcDbLine
 10
580.409
 20
433.601
 30
0
 11
573.631
 21
440.379
 31
0
  0
LINE
  5
305
330
112
100
AcDbEntity
  8
View
100
AcDbLine
 10
580.409
 20
433.601
 30
0
 11
585.359
 21
428.651
 31
0
  0
LINE
  5
306
330
112
100
AcDbEntity
  8
View
100
AcDbLine
 10
585.359
 20
428.651
 30
0
 11
584.281
 21
427.573
 31
0
  0
LINE
  5
307
330
112
100
AcDbEntity
  8
View
100
AcDbLine
 10
579.331
 20
432.522
 30
0
 11
584.281
 21
427.573
 31
0
  0
LINE
  5
308
330
112
100
AcDbEntity
  8
View
100
AcDbLine
 10
579.331
 20
432.522
 30
0
 11
573.631
 21
438.222
 31
0
  0
LINE
  5
309
330
112
100
AcDbEntity
  8
View
100
AcDbLine
 10
573.631
 20
438.222
 30
0
 11
573.631
 21
383.017
 31
0
  0
LINE
  5
30A
330
112
100
AcDbEntity
  8
View
100
AcDbLine
 10
624.557
 20
389.453
 30
0
 11
624.557
 21
383.017
 31
0
  0
LINE
  5
30B
330
112
100
AcDbEntity
  8
View
100
AcDbLine
 10
624.557
 20
389.453
 30
0
 11
638.866
 21
415.602
 31
0
  0
LINE
  5
30C
330
112
100
AcDbEntity
  8
View
100
AcDbLine
 10
640.881
 20
417.617
 30
0
 11
638.866
 21
415.602
 31
0
  0
LINE
  5
30D
330
112
100
AcDbEntity
  8
View
100
AcDbLine
 10
640.881
 20
417.617
 30
0
 11
638.406
 21
420.092
 31
0
  0
LINE
  5
30E
330
112
100
AcDbEntity
  8
View
100
AcDbLine
 10
638.406
 20
420.092
 30
0
 11
636.391
 21
418.077
 31
0
  0
LINE
  5
30F
330
112
100
AcDbEntity
  8
View
100
AcDbLine
 10
636.391
 20
418.077
 30
0
 11
630.734
 21
423.733
 31
0
  0
LINE
  5
310
330
112
100
AcDbEntity
  8
View
100
AcDbLine
 10
632.749
 20
425.749
 30
0
 11
630.734
 21
423.733
 31
0
  0
LINE
  5
311
330
112
100
AcDbEntity
  8
View
100
AcDbLine
 10
632.749
 20
425.749
 30
0
 11
624.013
 21
434.485
 31
0
  0
LINE
  5
312
330
112
100
AcDbEntity
  8
View
100
AcDbLine
 10
624.013
 20
434.485
 30
0
 11
621.997
 21
432.47
 31
0
  0
LINE
  5
313
330
112
100
AcDbEntity
  8
View
100
AcDbLine
 10
621.997
 20
432.47
 30
0
 11
616.34
 21
438.127
 31
0
  0
LINE
  5
314
330
112
100
AcDbEntity
  8
View
100
AcDbLine
 10
618.356
 20
440.142
 30
0
 11
616.34
 21
438.127
 31
0
  0
LINE
  5
315
330
112
100
AcDbEntity
  8
View
100
AcDbLine
 10
618.356
 20
440.142
 30
0
 11
609.881
 21
448.617
 31
0
  0
LINE
  5
316
330
112
100
AcDbEntity
  8
View
100
AcDbLine
 10
609.881
 20
459.117
 30
0
 11
609.881
 21
448.617
 31
0
  0
LINE
  5
317
330
112
100
AcDbEntity
  8
View
100
AcDbLine
 10
579.631
 20
459.117
 30
0
 11
609.881
 21
459.117
 31
0
  0
LINE
  5
318
330
112
100
AcDbEntity
  8
View
100
AcDbLine
 10
579.631
 20
456.117
 30
0
 11
579.631
 21
459.117
 31
0
  0
LINE
  5
319
330
112
100
AcDbEntity
  8
View
100
AcDbLine
 10
576.181
 20
456.117
 30
0
 11
579.631
 21
456.117
 31
0
  0
LINE
  5
31A
330
112
100
AcDbEntity
  8
View
100
AcDbLine
 10
576.181
 20
459.117
 30
0
 11
576.181
 21
456.117
 31
0
  0
LINE
  5
31B
330
112
100
AcDbEntity
  8
View
100
AcDbLine
 10
598.506
 20
408.546
 30
0
 11
580.256
 21
408.546
 31
0
  0
LINE
  5
31C
330
112
100
AcDbEntity
  8
View
100
AcDbLine
 10
598.506
 20
400.621
 30
0
 11
598.506
 21
408.546
 31
0
  0
LINE
  5
31D
330
112
100
AcDbEntity
  8
View
100
AcDbLine
 10
580.256
 20
400.621
 30
0
 11
598.506
 21
400.621
 31
0
  0
LINE
  5
31E
330
112
100
AcDbEntity
  8
View
100
AcDbLine
 10
580.256
 20
408.546
 30
0
 11
580.256
 21
400.621
 31
0
  0
CIRCLE
  5
31F
330
112
100
AcDbEntity
  8
View
100
AcDbCircle
 10
610.169
 20
397.017
 40
1.675
  0
CIRCLE
  5
320
330
112
100
AcDbEntity
  8
View
100
AcDbCircle
 10
600.336
 20
404.584
 40
0.9575
  0
CIRCLE
  5
321
330
112
100
AcDbEntity
  8
View
100
AcDbCircle
 10
578.426
 20
404.584
 40
0.9575
  0
LINE
  5
322
330
112
100
AcDbEntity
  8
View
100
AcDbLine
 10
584.631
 20
384.867
 30
0
 11
576.631
 21
384.867
 31
0
  0
LINE
  5
323
330
112
100
AcDbEntity
  8
View
100
AcDbLine
 10
576.631
 20
384.867
 30
0
 11
576.631
 21
388.167
 31
0
  0
LINE
  5
324
330
112
100
AcDbEntity
  8
View
100
AcDbLine
 10
584.631
 20
388.167
 30
0
 11
576.631
 21
388.167
 31
0
  0
LINE
  5
325
330
112
100
AcDbEntity
  8
View
100
AcDbLine
 10
584.631
 20
384.867
 30
0
 11
584.631
 21
388.167
 31
0
  0
LINE
  5
326
330
112
100
AcDbEntity
  8
View
100
AcDbLine
 10
621.557
 20
384.867
 30
0
 11
621.557
 21
388.167
 31
0
  0
LINE
  5
327
330
112
100
AcDbEntity
  8
View
100
AcDbLine
 10
621.557
 20
384.867
 30
0
 11
613.557
 21
384.867
 31
0
  0
LINE
  5
328
330
112
100
AcDbEntity
  8
View
100
AcDbLine
 10
613.557
 20
384.867
 30
0
 11
613.557
 21
388.167
 31
0
  0
LINE
  5
329
330
112
100
AcDbEntity
  8
View
100
AcDbLine
 10
621.557
 20
388.167
 30
0
 11
613.557
 21
388.167
 31
0
  0
LINE
  5
32A
330
112
100
AcDbEntity
  8
View
100
AcDbLine
 10
605.881
 20
455.617
 30
0
 11
604.356
 21
455.617
 31
0
  0
LINE
  5
32B
330
112
100
AcDbEntity
  8
View
100
AcDbLine
 10
605.881
 20
455.617
 30
0
 11
605.881
 21
416.654
 31
0
  0
LINE
  5
32C
330
112
100
AcDbEntity
  8
View
100
AcDbLine
 10
605.881
 20
416.654
 30
0
 11
604.356
 21
416.654
 31
0
  0
LINE
  5
32D
330
112
100
AcDbEntity
  8
View
100
AcDbLine
 10
604.356
 20
455.617
 30
0
 11
604.356
 21
416.654
 31
0
  0
LINE
  5
32E
330
112
100
AcDbEntity
  8
View
100
AcDbLine
 10
576.181
 20
418.367
 30
0
 11
579.631
 21
418.367
 31
0
  0
LINE
  5
32F
330
112
100
AcDbEntity
  8
View
100
AcDbLine
 10
576.181
 20
426.367
 30
0
 11
576.181
 21
418.367
 31
0
  0
LINE
  5
330
330
112
100
AcDbEntity
  8
View
100
AcDbLine
 10
579.631
 20
426.367
 30
0
 11
576.181
 21
426.367
 31
0
  0
LINE
  5
331
330
112
100
AcDbEntity
  8
View
100
AcDbLine
 10
579.631
 20
426.367
 30
0
 11
579.631
 21
418.367
 31
0
  0
LINE
  5
332
330
112
100
AcDbEntity
  8
View001
100
AcDbLine
 10
659.857
 20
383.47
 30
0
 11
710.783
 21
383.47
 31
0
  0
LINE
  5
333
330
112
100
AcDbEntity
  8
View001
100
AcDbLine
 10
710.783
 20
438.676
 30
0
 11
710.783
 21
383.47
 31
0
  0
LINE
  5
334
330
112
100
AcDbEntity
  8
View001
100
AcDbLine
 10
645.548
 20
416.055
 30
0
 11
659.857
 21
389.906
 31
0
  0
LINE
  5
335
330
112
100
AcDbEntity
  8
View001
100
AcDbLine
 10
659.857
 20
389.906
 30
0
 11
659.857
 21
383.47
 31
0
  0
LINE
  5
336
330
112
100
AcDbEntity
  8
View001
100
AcDbLine
 10
710.783
 20
438.676
 30
0
 11
703.669
 21
431.562
 31
0
  0
LINE
  5
337
330
112
100
AcDbEntity
  8
View001
100
AcDbLine
 10
703.669
 20
431.562
 30
0
 11
700.133
 21
428.026
 31
0
  0
LINE
  5
338
330
112
100
AcDbEntity
  8
View001
100
AcDbLine
 10
700.133
 20
428.026
 30
0
 11
699.055
 21
429.104
 31
0
  0
LINE
  5
339
330
112
100
AcDbEntity
  8
View001
100
AcDbLine
 10
702.59
 20
432.64
 30
0
 11
699.055
 21
429.104
 31
0
  0
LINE
  5
33A
330
112
100
AcDbEntity
  8
View001
100
AcDbLine
 10
702.59
 20
432.64
 30
0
 11
710.783
 21
440.832
 31
0
  0
LINE
  5
33B
330
112
100
AcDbEntity
  8
View001
100
AcDbLine
 10
710.783
 20
440.832
 30
0
 11
710.783
 21
459.57
 31
0
  0
LINE
  5
33C
330
112
100
AcDbEntity
  8
View001
100
AcDbLine
 10
710.783
 20
459.57
 30
0
 11
708.233
 21
459.57
 31
0
  0
LINE
  5
33D
330
112
100
AcDbEntity
  8
View001
100
AcDbLine
 10
708.233
 20
456.57
 30
0
 11
708.233
 21
459.57
 31
0
  0
LINE
  5
33E
330
112
100
AcDbEntity
  8
View001
100
AcDbLine
 10
704.783
 20
456.57
 30
0
 11
708.233
 21
456.57
 31
0
  0
LINE
  5
33F
330
112
100
AcDbEntity
  8
View001
100
AcDbLine
 10
704.783
 20
459.57
 30
0
 11
704.783
 21
456.57
 31
0
  0
LINE
  5
340
330
112
100
AcDbEntity
  8
View001
100
AcDbLine
 10
704.783
 20
459.57
 30
0
 11
674.533
 21
459.57
 31
0
  0
LINE
  5
341
330
112
100
AcDbEntity
  8
View001
100
AcDbLine
 10
674.533
 20
449.07
 30
0
 11
674.533
 21
459.57
 31
0
  0
LINE
  5
342
330
112
100
AcDbEntity
  8
View001
100
AcDbLine
 10
666.058
 20
440.596
 30
0
 11
674.533
 21
449.07
 31
0
  0
LINE
  5
343
330
112
100
AcDbEntity
  8
View001
100
AcDbLine
 10
668.073
 20
438.58
 30
0
 11
666.058
 21
440.596
 31
0
  0
LINE
  5
344
330
112
100
AcDbEntity
  8
View001
100
AcDbLine
 10
668.073
 20
438.58
 30
0
 11
662.416
 21
432.923
 31
0
  0
LINE
  5
345
330
112
100
AcDbEntity
  8
View001
100
AcDbLine
 10
662.416
 20
432.923
 30
0
 11
660.401
 21
434.939
 31
0
  0
LINE
  5
346
330
112
100
AcDbEntity
  8
View001
100
AcDbLine
 10
651.665
 20
426.202
 30
0
 11
660.401
 21
434.939
 31
0
  0
LINE
  5
347
330
112
100
AcDbEntity
  8
View001
100
AcDbLine
 10
653.68
 20
424.187
 30
0
 11
651.665
 21
426.202
 31
0
  0
LINE
  5
348
330
112
100
AcDbEntity
  8
View001
100
AcDbLine
 10
653.68
 20
424.187
 30
0
 11
648.023
 21
418.53
 31
0
  0
LINE
  5
349
330
112
100
AcDbEntity
  8
View001
100
AcDbLine
 10
648.023
 20
418.53
 30
0
 11
646.008
 21
420.545
 31
0
  0
LINE
  5
34A
330
112
100
AcDbEntity
  8
View001
100
AcDbLine
 10
643.533
 20
418.07
 30
0
 11
646.008
 21
420.545
 31
0
  0
LINE
  5
34B
330
112
100
AcDbEntity
  8
View001
100
AcDbLine
 10
645.548
 20
416.055
 30
0
 11
643.533
 21
418.07
 31
0
  0
LINE
  5
34C
330
112
100
AcDbEntity
  8
View001
100
AcDbLine
 10
699.783
 20
385.32
 30
0
 11
707.783
 21
385.32
 31
0
  0
LINE
  5
34D
330
112
100
AcDbEntity
  8
View001
100
AcDbLine
 10
699.783
 20
388.62
 30
0
 11
699.783
 21
385.32
 31
0
  0
LINE
  5
34E
330
112
100
AcDbEntity
  8
View001
100
AcDbLine
 10
707.783
 20
388.62
 30
0
 11
699.783
 21
388.62
 31
0
  0
LINE
  5
34F
330
112
100
AcDbEntity
  8
View001
100
AcDbLine
 10
707.783
 20
385.32
 30
0
 11
707.783
 21
388.62
 31
0
  0
CIRCLE
  5
350
330
112
100
AcDbEntity
  8
View001
100
AcDbCircle
 10
700.147
 20
418.044
 40
0.58625
  0
CIRCLE
  5
351
330
112
100
AcDbEntity
  8
View001
100
AcDbCircle
 10
693.149
 20
418.044
 40
0.58625
  0
LINE
  5
352
330
112
100
AcDbEntity
  8
View001
100
AcDbLine
 10
701.148
 20
404.041
 30
0
 11
701.148
 21
401.041
 31
0
  0
LINE
  5
353
330
112
100
AcDbEntity
  8
View001
100
AcDbLine
 10
701.148
 20
401.041
 30
0
 11
692.148
 21
401.041
 31
0
  0
LINE
  5
354
330
112
100
AcDbEntity
  8
View001
100
AcDbLine
 10
692.148
 20
401.041
 30
0
 11
692.148
 21
404.041
 31
0
  0
LINE
  5
355
330
112
100
AcDbEntity
  8
View001
100
AcDbLine
 10
692.148
 20
404.041
 30
0
 11
701.148
 21
404.041
 31
0
  0
LINE
  5
356
330
112
100
AcDbEntity
  8
View001
100
AcDbLine
 10
708.233
 20
426.82
 30
0
 11
704.783
 21
426.82
 31
0
  0
LINE
  5
357
330
112
100
AcDbEntity
  8
View001
100
AcDbLine
 10
708.233
 20
418.82
 30
0
 11
708.233
 21
426.82
 31
0
  0
LINE
  5
358
330
112
100
AcDbEntity
  8
View001
100
AcDbLine
 10
704.783
 20
418.82
 30
0
 11
708.233
 21
418.82
 31
0
  0
LINE
  5
359
330
112
100
AcDbEntity
  8
View001
100
AcDbLine
 10
704.783
 20
426.82
 30
0
 11
704.783
 21
418.82
 31
0
  0
LINE
  5
35A
330
112
100
AcDbEntity
  8
View001
100
AcDbLine
 10
689.648
 20
404.041
 30
0
 11
689.648
 21
401.041
 31
0
  0
LINE
  5
35B
330
112
100
AcDbEntity
  8
View001
100
AcDbLine
 10
689.648
 20
401.041
 30
0
 11
680.648
 21
401.041
 31
0
  0
LINE
  5
35C
330
112
100
AcDbEntity
  8
View001
100
AcDbLine
 10
680.648
 20
401.041
 30
0
 11
680.648
 21
404.041
 31
0
  0
LINE
  5
35D
330
112
100
AcDbEntity
  8
View001
100
AcDbLine
 10
680.648
 20
404.041
 30
0
 11
689.648
 21
404.041
 31
0
  0
LINE
  5
35E
330
112
100
AcDbEntity
  8
View001
100
AcDbLine
 10
678.533
 20
457.57
 30
0
 11
678.533
 21
417.107
 31
0
  0
LINE
  5
35F
330
112
100
AcDbEntity
  8
View001
100
AcDbLine
 10
680.058
 20
457.57
 30
0
 11
678.533
 21
457.57
 31
0
  0
LINE
  5
360
330
112
100
AcDbEntity
  8
View001
100
AcDbLine
 10
680.058
 20
417.107
 30
0
 11
680.058
 21
457.57
 31
0
  0
LINE
  5
361
330
112
100
AcDbEntity
  8
View001
100
AcDbLine
 10
678.533
 20
417.107
 30
0
 11
680.058
 21
417.107
 31
0
  0
CIRCLE
  5
362
330
112
100
AcDbEntity
  8
View001
100
AcDbCircle
 10
674.244
 20
397.47
 40
1.675
  0
LINE
  5
363
330
112
100
AcDbEntity
  8
View001
100
AcDbLine
 10
670.857
 20
385.32
 30
0
 11
670.857
 21
388.62
 31
0
  0
LINE
  5
364
330
112
100
AcDbEntity
  8
View001
100
AcDbLine
 10
670.857
 20
385.32
 30
0
 11
662.857
 21
385.32
 31
0
  0
LINE
  5
365
330
112
100
AcDbEntity
  8
View001
100
AcDbLine
 10
662.857
 20
385.32
 30
0
 11
662.857
 21
388.62
 31
0
  0
LINE
  5
366
330
112
100
AcDbEntity
  8
View001
100
AcDbLine
 10
670.857
 20
388.62
 30
0
 11
662.857
 21
388.62
 31
0
  0
LINE
  5
367
330
112
100
AcDbEntity
  8
View002
100
AcDbLine
 10
576.841
 20
356.953
 30
0
 11
576.841
 21
344.898
 31
0
  0
LINE
  5
368
330
112
100
AcDbEntity
  8
View002
100
AcDbLine
 10
576.841
 20
344.898
 30
0
 11
573.891
 21
344.898
 31
0
  0
LINE
  5
369
330
112
100
AcDbEntity
  8
View002
100
AcDbLine
 10
576.841
 20
356.953
 30
0
 11
573.891
 21
356.953
 31
0
  0
LINE
  5
36A
330
112
100
AcDbEntity
  8
View002
100
AcDbLine
 10
573.891
 20
356.953
 30
0
 11
573.891
 21
365.253
 31
0
  0
LINE
  5
36B
330
112
100
AcDbEntity
  8
View002
100
AcDbLine
 10
576.841
 20
365.253
 30
0
 11
573.891
 21
365.253
 31
0
  0
LINE
  5
36C
330
112
100
AcDbEntity
  8
View002
100
AcDbLine
 10
576.841
 20
365.253
 30
0
 11
576.841
 21
379.853
 31
0
  0
LINE
  5
36D
330
112
100
AcDbEntity
  8
View002
100
AcDbLine
 10
576.841
 20
379.853
 30
0
 11
601.841
 21
379.853
 31
0
  0
LINE
  5
36E
330
112
100
AcDbEntity
  8
View002
100
AcDbLine
 10
601.841
 20
379.853
 30
0
 11
601.841
 21
365.253
 31
0
  0
LINE
  5
36F
330
112
100
AcDbEntity
  8
View002
100
AcDbLine
 10
573.891
 20
336.598
 30
0
 11
573.891
 21
344.898
 31
0
  0
LINE
  5
370
330
112
100
AcDbEntity
  8
View002
100
AcDbLine
 10
604.791
 20
356.953
 30
0
 11
601.841
 21
356.953
 31
0
  0
LINE
  5
371
330
112
100
AcDbEntity
  8
View002
100
AcDbLine
 10
601.841
 20
356.953
 30
0
 11
601.841
 21
344.898
 31
0
  0
LINE
  5
372
330
112
100
AcDbEntity
  8
View002
100
AcDbLine
 10
601.841
 20
344.898
 30
0
 11
604.791
 21
344.898
 31
0
  0
LINE
  5
373
330
112
100
AcDbEntity
  8
View002
100
AcDbLine
 10
604.791
 20
344.898
 30
0
 11
604.791
 21
336.598
 31
0
  0
LINE
  5
374
330
112
100
AcDbEntity
  8
View002
100
AcDbLine
 10
604.791
 20
336.598
 30
0
 11
601.841
 21
336.598
 31
0
  0
LINE
  5
375
330
112
100
AcDbEntity
  8
View002
100
AcDbLine
 10
601.841
 20
336.598
 30
0
 11
601.841
 21
333.248
 31
0
  0
LINE
  5
376
330
112
100
AcDbEntity
  8
View002
100
AcDbLine
 10
601.841
 20
333.248
 30
0
 11
576.841
 21
333.248
 31
0
  0
LINE
  5
377
330
112
100
AcDbEntity
  8
View002
100
AcDbLine
 10
576.841
 20
336.598
 30
0
 11
576.841
 21
333.248
 31
0
  0
LINE
  5
378
330
112
100
AcDbEntity
  8
View002
100
AcDbLine
 10
576.841
 20
336.598
 30
0
 11
573.891
 21
336.598
 31
0
  0
LINE
  5
379
330
112
100
AcDbEntity
  8
View002
100
AcDbLine
 10
601.841
 20
365.253
 30
0
 11
604.791
 21
365.253
 31
0
  0
CIRCLE
  5
37A
330
112
100
AcDbEntity
  8
View002
100
AcDbCircle
 10
585.838
 20
353.052
 40
0.58575
  0
CIRCLE
  5
37B
330
112
100
AcDbEntity
  8
View002
100
AcDbCircle
 10
585.838
 20
360.05
 40
0.58575
  0
LINE
  5
37C
330
112
100
AcDbEntity
  8
View002
100
AcDbLine
 10
604.791
 20
365.253
 30
0
 11
604.791
 21
356.953
 31
0
  0
LINE
  5
37D
330
112
100
AcDbEntity
  8
View003
100
AcDbLine
 10
573.888
 20
329.885
 30
0
 11
573.888
 21
322.885
 31
0
  0
LINE
  5
37E
330
112
100
AcDbEntity
  8
View003
100
AcDbLine
 10
577.238
 20
322.885
 30
0
 11
573.888
 21
322.885
 31
0
  0
LINE
  5
37F
330
112
100
AcDbEntity
  8
View003
100
AcDbLine
 10
577.238
 20
322.885
 30
0
 11
577.238
 21
267.45
 31
0
  0
LINE
  5
380
330
112
100
AcDbEntity
  8
View003
100
AcDbLine
 10
602.238
 20
267.45
 30
0
 11
577.238
 21
267.45
 31
0
  0
LINE
  5
381
330
112
100
AcDbEntity
  8
View003
100
AcDbLine
 10
602.238
 20
267.45
 30
0
 11
602.238
 21
322.885
 31
0
  0
LINE
  5
382
330
112
100
AcDbEntity
  8
View003
100
AcDbLine
 10
602.238
 20
322.885
 30
0
 11
605.588
 21
322.885
 31
0
  0
LINE
  5
383
330
112
100
AcDbEntity
  8
View003
100
AcDbLine
 10
605.588
 20
329.885
 30
0
 11
605.588
 21
322.885
 31
0
  0
LINE
  5
384
330
112
100
AcDbEntity
  8
View003
100
AcDbLine
 10
573.888
 20
329.885
 30
0
 11
605.588
 21
329.885
 31
0
  0
LINE
  5
385
330
112
100
AcDbEntity
  8
View004
100
AcDbLine
 10
676.902
 20
339.045
 30
0
 11
676.052
 21
339.045
 31
0
  0
ARC
  5
386
330
112
100
AcDbEntity
  8
View004
100
AcDbCircle
 10
676.902
 20
340.045
 30
0
 40
1
100
AcDbArc
 50
-90
 51
0
  0
LINE
  5
387
330
112
100
AcDbEntity
  8
View004
100
AcDbLine
 10
677.902
 20
340.045
 30
0
 11
677.902
 21
346.045
 31
0
  0
ARC
  5
388
330
112
100
AcDbEntity
  8
View004
100
AcDbCircle
 10
676.902
 20
346.045
 30
0
 40
1
100
AcDbArc
 50
0
 51
90
  0
LINE
  5
389
330
112
100
AcDbEntity
  8
View004
100
AcDbLine
 10
676.902
 20
347.045
 30
0
 11
676.052
 21
347.045
 31
0
  0
LINE
  5
38A
330
112
100
AcDbEntity
  8
View004
100
AcDbLine
 10
676.052
 20
347.045
 30
0
 11
676.052
 21
376.795
 31
0
  0
LINE
  5
38B
330
112
100
AcDbEntity
  8
View004
100
AcDbLine
 10
678.902
 20
376.795
 30
0
 11
676.052
 21
376.795
 31
0
  0
LINE
  5
38C
330
112
100
AcDbEntity
  8
View004
100
AcDbLine
 10
678.902
 20
376.795
 30
0
 11
678.902
 21
379.795
 31
0
  0
LINE
  5
38D
330
112
100
AcDbEntity
  8
View004
100
AcDbLine
 10
648.202
 20
379.795
 30
0
 11
678.902
 21
379.795
 31
0
  0
LINE
  5
38E
330
112
100
AcDbEntity
  8
View004
100
AcDbLine
 10
648.202
 20
376.795
 30
0
 11
648.202
 21
379.795
 31
0
  0
LINE
  5
38F
330
112
100
AcDbEntity
  8
View004
100
AcDbLine
 10
651.052
 20
376.795
 30
0
 11
648.202
 21
376.795
 31
0
  0
LINE
  5
390
330
112
100
AcDbEntity
  8
View004
100
AcDbLine
 10
651.052
 20
347.045
 30
0
 11
651.052
 21
376.795
 31
0
  0
LINE
  5
391
330
112
100
AcDbEntity
  8
View004
100
AcDbLine
 10
650.202
 20
347.045
 30
0
 11
651.052
 21
347.045
 31
0
  0
ARC
  5
392
330
112
100
AcDbEntity
  8
View004
100
AcDbCircle
 10
650.202
 20
346.045
 30
0
 40
1
100
AcDbArc
 50
90
 51
180
  0
LINE
  5
393
330
112
100
AcDbEntity
  8
View004
100
AcDbLine
 10
649.202
 20
340.045
 30
0
 11
649.202
 21
346.045
 31
0
  0
ARC
  5
394
330
112
100
AcDbEntity
  8
View004
100
AcDbCircle
 10
650.202
 20
340.045
 30
0
 40
1
100
AcDbArc
 50
180
 51
-90
  0
LINE
  5
395
330
112
100
AcDbEntity
  8
View004
100
AcDbLine
 10
651.052
 20
339.045
 30
0
 11
650.202
 21
339.045
 31
0
  0
LINE
  5
396
330
112
100
AcDbEntity
  8
View004
100
AcDbLine
 10
651.052
 20
339.045
 30
0
 11
651.052
 21
329.224
 31
0
  0
LINE
  5
397
330
112
100
AcDbEntity
  8
View004
100
AcDbLine
 10
651.052
 20
329.224
 30
0
 11
676.052
 21
329.224
 31
0
  0
LINE
  5
398
330
112
100
AcDbEntity
  8
View004
100
AcDbLine
 10
676.052
 20
339.045
 30
0
 11
676.052
 21
329.224
 31
0
  0
LINE
  5
399
330
112
100
AcDbEntity
  8
View005
100
AcDbLine
 10
614.655
 20
347.118
 30
0
 11
611.805
 21
347.118
 31
0
  0
LINE
  5
39A
330
112
100
AcDbEntity
  8
View005
100
AcDbLine
 10
611.805
 20
347.118
 30
0
 11
611.805
 21
337.118
 31
0
  0
LINE
  5
39B
330
112
100
AcDbEntity
  8
View005
100
AcDbLine
 10
611.805
 20
337.118
 30
0
 11
614.655
 21
337.118
 31
0
  0
LINE
  5
39C
330
112
100
AcDbEntity
  8
View005
100
AcDbLine
 10
614.655
 20
337.118
 30
0
 11
614.655
 21
332.118
 31
0
  0
ARC
  5
39D
330
112
100
AcDbEntity
  8
View005
100
AcDbCircle
 10
616.655
 20
332.118
 30
0
 40
2
100
AcDbArc
 50
180
 51
-90
  0
LINE
  5
39E
330
112
100
AcDbEntity
  8
View005
100
AcDbLine
 10
616.655
 20
330.118
 30
0
 11
637.655
 21
330.118
 31
0
  0
ARC
  5
39F
330
112
100
AcDbEntity
  8
View005
100
AcDbCircle
 10
637.655
 20
332.118
 30
0
 40
2
100
AcDbArc
 50
-90
 51
0
  0
LINE
  5
3A0
330
112
100
AcDbEntity
  8
View005
100
AcDbLine
 10
639.655
 20
337.118
 30
0
 11
639.655
 21
332.118
 31
0
  0
LINE
  5
3A1
330
112
100
AcDbEntity
  8
View005
100
AcDbLine
 10
642.505
 20
337.118
 30
0
 11
639.655
 21
337.118
 31
0
  0
LINE
  5
3A2
330
112
100
AcDbEntity
  8
View005
100
AcDbLine
 10
642.505
 20
341.426
 30
0
 11
642.505
 21
337.118
 31
0
  0
LINE
  5
3A3
330
112
100
AcDbEntity
  8
View005
100
AcDbLine
 10
642.505
 20
341.426
 30
0
 11
642.205
 21
341.726
 31
0
  0
LINE
  5
3A4
330
112
100
AcDbEntity
  8
View005
100
AcDbLine
 10
642.205
 20
341.726
 30
0
 11
641.905
 21
341.426
 31
0
  0
LINE
  5
3A5
330
112
100
AcDbEntity
  8
View005
100
AcDbLine
 10
641.905
 20
341.426
 30
0
 11
641.855
 21
341.426
 31
0
  0
LINE
  5
3A6
330
112
100
AcDbEntity
  8
View005
100
AcDbLine
 10
641.855
 20
341.426
 30
0
 11
641.555
 21
341.726
 31
0
  0
LINE
  5
3A7
330
112
100
AcDbEntity
  8
View005
100
AcDbLine
 10
641.555
 20
341.726
 30
0
 11
641.255
 21
341.426
 31
0
  0
LINE
  5
3A8
330
112
100
AcDbEntity
  8
View005
100
AcDbLine
 10
641.255
 20
341.426
 30
0
 11
641.205
 21
341.426
 31
0
  0
LINE
  5
3A9
330
112
100
AcDbEntity
  8
View005
100
AcDbLine
 10
641.205
 20
341.426
 30
0
 11
640.905
 21
341.726
 31
0
  0
LINE
  5
3AA
330
112
100
AcDbEntity
  8
View005
100
AcDbLine
 10
640.905
 20
341.726
 30
0
 11
640.605
 21
341.426
 31
0
  0
LINE
  5
3AB
330
112
100
AcDbEntity
  8
View005
100
AcDbLine
 10
640.555
 20
341.426
 30
0
 11
640.605
 21
341.426
 31
0
  0
LINE
  5
3AC
330
112
100
AcDbEntity
  8
View005
100
AcDbLine
 10
640.555
 20
341.426
 30
0
 11
640.255
 21
341.726
 31
0
  0
LINE
  5
3AD
330
112
100
AcDbEntity
  8
View005
100
AcDbLine
 10
640.255
 20
341.726
 30
0
 11
639.955
 21
341.426
 31
0
  0
LINE
  5
3AE
330
112
100
AcDbEntity
  8
View005
100
AcDbLine
 10
639.955
 20
341.426
 30
0
 11
639.905
 21
341.426
 31
0
  0
LINE
  5
3AF
330
112
100
AcDbEntity
  8
View005
100
AcDbLine
 10
639.905
 20
341.426
 30
0
 11
639.605
 21
341.726
 31
0
  0
LINE
  5
3B0
330
112
100
AcDbEntity
  8
View005
100
AcDbLine
 10
639.605
 20
341.726
 30
0
 11
639.305
 21
341.426
 31
0
  0
LINE
  5
3B1
330
112
100
AcDbEntity
  8
View005
100
AcDbLine
 10
639.305
 20
341.426
 30
0
 11
639.255
 21
341.426
 31
0
  0
LINE
  5
3B2
330
112
100
AcDbEntity
  8
View005
100
AcDbLine
 10
639.255
 20
341.426
 30
0
 11
638.955
 21
341.726
 31
0
  0
LINE
  5
3B3
330
112
100
AcDbEntity
  8
View005
100
AcDbLine
 10
638.955
 20
341.726
 30
0
 11
638.655
 21
341.426
 31
0
  0
LINE
  5
3B4
330
112
100
AcDbEntity
  8
View005
100
AcDbLine
 10
638.655
 20
341.426
 30
0
 11
638.605
 21
341.426
 31
0
  0
LINE
  5
3B5
330
112
100
AcDbEntity
  8
View005
100
AcDbLine
 10
638.605
 20
341.426
 30
0
 11
638.305
 21
341.726
 31
0
  0
LINE
  5
3B6
330
112
100
AcDbEntity
  8
View005
100
AcDbLine
 10
638.305
 20
341.726
 30
0
 11
638.005
 21
341.426
 31
0
  0
LINE
  5
3B7
330
112
100
AcDbEntity
  8
View005
100
AcDbLine
 10
638.005
 20
341.426
 30
0
 11
637.955
 21
341.426
 31
0
  0
LINE
  5
3B8
330
112
100
AcDbEntity
  8
View005
100
AcDbLine
 10
637.955
 20
341.426
 30
0
 11
637.655
 21
341.726
 31
0
  0
LINE
  5
3B9
330
112
100
AcDbEntity
  8
View005
100
AcDbLine
 10
637.655
 20
341.726
 30
0
 11
637.355
 21
341.426
 31
0
  0
LINE
  5
3BA
330
112
100
AcDbEntity
  8
View005
100
AcDbLine
 10
637.355
 20
341.426
 30
0
 11
637.305
 21
341.426
 31
0
  0
LINE
  5
3BB
330
112
100
AcDbEntity
  8
View005
100
AcDbLine
 10
637.305
 20
341.426
 30
0
 11
637.005
 21
341.726
 31
0
  0
LINE
  5
3BC
330
112
100
AcDbEntity
  8
View005
100
AcDbLine
 10
637.005
 20
341.726
 30
0
 11
636.705
 21
341.426
 31
0
  0
LINE
  5
3BD
330
112
100
AcDbEntity
  8
View005
100
AcDbLine
 10
636.705
 20
341.426
 30
0
 11
636.655
 21
341.426
 31
0
  0
LINE
  5
3BE
330
112
100
AcDbEntity
  8
View005
100
AcDbLine
 10
636.655
 20
341.426
 30
0
 11
636.355
 21
341.726
 31
0
  0
LINE
  5
3BF
330
112
100
AcDbEntity
  8
View005
100
AcDbLine
 10
636.355
 20
341.726
 30
0
 11
636.055
 21
341.426
 31
0
  0
LINE
  5
3C0
330
112
100
AcDbEntity
  8
View005
100
AcDbLine
 10
636.005
 20
341.426
 30
0
 11
635.905
 21
341.526
 31
0
  0
LINE
  5
3C1
330
112
100
AcDbEntity
  8
View005
100
AcDbLine
 10
635.905
 20
341.526
 30
0
 11
635.905
 21
342.711
 31
0
  0
LINE
  5
3C2
330
112
100
AcDbEntity
  8
View005
100
AcDbLine
 10
636.055
 20
341.426
 30
0
 11
636.005
 21
341.426
 31
0
  0
LINE
  5
3C3
330
112
100
AcDbEntity
  8
View005
100
AcDbLine
 10
636.005
 20
342.811
 30
0
 11
635.905
 21
342.711
 31
0
  0
LINE
  5
3C4
330
112
100
AcDbEntity
  8
View005
100
AcDbLine
 10
636.055
 20
342.811
 30
0
 11
636.005
 21
342.811
 31
0
  0
LINE
  5
3C5
330
112
100
AcDbEntity
  8
View005
100
AcDbLine
 10
636.355
 20
342.511
 30
0
 11
636.055
 21
342.811
 31
0
  0
LINE
  5
3C6
330
112
100
AcDbEntity
  8
View005
100
AcDbLine
 10
636.655
 20
342.811
 30
0
 11
636.355
 21
342.511
 31
0
  0
LINE
  5
3C7
330
112
100
AcDbEntity
  8
View005
100
AcDbLine
 10
636.705
 20
342.811
 30
0
 11
636.655
 21
342.811
 31
0
  0
LINE
  5
3C8
330
112
100
AcDbEntity
  8
View005
100
AcDbLine
 10
637.005
 20
342.511
 30
0
 11
636.705
 21
342.811
 31
0
  0
LINE
  5
3C9
330
112
100
AcDbEntity
  8
View005
100
AcDbLine
 10
637.305
 20
342.811
 30
0
 11
637.005
 21
342.511
 31
0
  0
LINE
  5
3CA
330
112
100
AcDbEntity
  8
View005
100
AcDbLine
 10
637.355
 20
342.811
 30
0
 11
637.305
 21
342.811
 31
0
  0
LINE
  5
3CB
330
112
100
AcDbEntity
  8
View005
100
AcDbLine
 10
637.655
 20
342.511
 30
0
 11
637.355
 21
342.811
 31
0
  0
LINE
  5
3CC
330
112
100
AcDbEntity
  8
View005
100
AcDbLine
 10
637.955
 20
342.811
 30
0
 11
637.655
 21
342.511
 31
0
  0
LINE
  5
3CD
330
112
100
AcDbEntity
  8
View005
100
AcDbLine
 10
638.005
 20
342.811
 30
0
 11
637.955
 21
342.811
 31
0
  0
LINE
  5
3CE
330
112
100
AcDbEntity
  8
View005
100
AcDbLine
 10
638.305
 20
342.511
 30
0
 11
638.005
 21
342.811
 31
0
  0
LINE
  5
3CF
330
112
100
AcDbEntity
  8
View005
100
AcDbLine
 10
638.605
 20
342.811
 30
0
 11
638.305
 21
342.511
 31
0
  0
LINE
  5
3D0
330
112
100
AcDbEntity
  8
View005
100
AcDbLine
 10
638.655
 20
342.811
 30
0
 11
638.605
 21
342.811
 31
0
  0
LINE
  5
3D1
330
112
100
AcDbEntity
  8
View005
100
AcDbLine
 10
638.955
 20
342.511
 30
0
 11
638.655
 21
342.811
 31
0
  0
LINE
  5
3D2
330
112
100
AcDbEntity
  8
View005
100
AcDbLine
 10
639.255
 20
342.811
 30
0
 11
638.955
 21
342.511
 31
0
  0
LINE
  5
3D3
330
112
100
AcDbEntity
  8
View005
100
AcDbLine
 10
639.305
 20
342.811
 30
0
 11
639.255
 21
342.811
 31
0
  0
LINE
  5
3D4
330
112
100
AcDbEntity
  8
View005
100
AcDbLine
 10
639.605
 20
342.511
 30
0
 11
639.305
 21
342.811
 31
0
  0
LINE
  5
3D5
330
112
100
AcDbEntity
  8
View005
100
AcDbLine
 10
639.905
 20
342.811
 30
0
 11
639.605
 21
342.511
 31
0
  0
LINE
  5
3D6
330
112
100
AcDbEntity
  8
View005
100
AcDbLine
 10
639.955
 20
342.811
 30
0
 11
639.905
 21
342.811
 31
0
  0
LINE
  5
3D7
330
112
100
AcDbEntity
  8
View005
100
AcDbLine
 10
640.255
 20
342.511
 30
0
 11
639.955
 21
342.811
 31
0
  0
LINE
  5
3D8
330
112
100
AcDbEntity
  8
View005
100
AcDbLine
 10
640.555
 20
342.811
 30
0
 11
640.255
 21
342.511
 31
0
  0
LINE
  5
3D9
330
112
100
AcDbEntity
  8
View005
100
AcDbLine
 10
640.555
 20
342.811
 30
0
 11
640.605
 21
342.811
 31
0
  0
LINE
  5
3DA
330
112
100
AcDbEntity
  8
View005
100
AcDbLine
 10
640.905
 20
342.511
 30
0
 11
640.605
 21
342.811
 31
0
  0
LINE
  5
3DB
330
112
100
AcDbEntity
  8
View005
100
AcDbLine
 10
641.205
 20
342.811
 30
0
 11
640.905
 21
342.511
 31
0
  0
LINE
  5
3DC
330
112
100
AcDbEntity
  8
View005
100
AcDbLine
 10
641.255
 20
342.811
 30
0
 11
641.205
 21
342.811
 31
0
  0
LINE
  5
3DD
330
112
100
AcDbEntity
  8
View005
100
AcDbLine
 10
641.555
 20
342.511
 30
0
 11
641.255
 21
342.811
 31
0
  0
LINE
  5
3DE
330
112
100
AcDbEntity
  8
View005
100
AcDbLine
 10
641.855
 20
342.811
 30
0
 11
641.555
 21
342.511
 31
0
  0
LINE
  5
3DF
330
112
100
AcDbEntity
  8
View005
100
AcDbLine
 10
641.905
 20
342.811
 30
0
 11
641.855
 21
342.811
 31
0
  0
LINE
  5
3E0
330
112
100
AcDbEntity
  8
View005
100
AcDbLine
 10
642.205
 20
342.511
 30
0
 11
641.905
 21
342.811
 31
0
  0
LINE
  5
3E1
330
112
100
AcDbEntity
  8
View005
100
AcDbLine
 10
642.505
 20
342.811
 30
0
 11
642.205
 21
342.511
 31
0
  0
LINE
  5
3E2
330
112
100
AcDbEntity
  8
View005
100
AcDbLine
 10
642.505
 20
347.118
 30
0
 11
642.505
 21
342.811
 31
0
  0
LINE
  5
3E3
330
112
100
AcDbEntity
  8
View005
100
AcDbLine
 10
639.655
 20
347.118
 30
0
 11
642.505
 21
347.118
 31
0
  0
LINE
  5
3E4
330
112
100
AcDbEntity
  8
View005
100
AcDbLine
 10
639.655
 20
347.118
 30
0
 11
639.655
 21
379.581
 31
0
  0
LINE
  5
3E5
330
112
100
AcDbEntity
  8
View005
100
AcDbLine
 10
614.655
 20
379.581
 30
0
 11
639.655
 21
379.581
 31
0
  0
LINE
  5
3E6
330
112
100
AcDbEntity
  8
View005
100
AcDbLine
 10
614.655
 20
347.118
 30
0
 11
614.655
 21
379.581
 31
0
  0
LINE
  5
3E7
330
112
100
AcDbEntity
  8
View006
100
AcDbLine
 10
653.663
 20
294.259
 30
0
 11
658.663
 21
294.259
 31
0
  0
ARC
  5
3E8
330
112
100
AcDbEntity
  8
View006
100
AcDbCircle
 10
658.663
 20
295.759
 30
0
 40
1.5
100
AcDbArc
 50
-90
 51
0
  0
LINE
  5
3E9
330
112
100
AcDbEntity
  8
View006
100
AcDbLine
 10
660.163
 20
295.759
 30
0
 11
660.163
 21
297.109
 31
0
  0
LINE
  5
3EA
330
112
100
AcDbEntity
  8
View006
100
AcDbLine
 10
660.163
 20
297.109
 30
0
 11
663.163
 21
297.109
 31
0
  0
LINE
  5
3EB
330
112
100
AcDbEntity
  8
View006
100
AcDbLine
 10
663.163
 20
297.109
 30
0
 11
663.163
 21
322.109
 31
0
  0
LINE
  5
3EC
330
112
100
AcDbEntity
  8
View006
100
AcDbLine
 10
660.163
 20
322.109
 30
0
 11
663.163
 21
322.109
 31
0
  0
LINE
  5
3ED
330
112
100
AcDbEntity
  8
View006
100
AcDbLine
 10
660.163
 20
323.459
 30
0
 11
660.163
 21
322.109
 31
0
  0
ARC
  5
3EE
330
112
100
AcDbEntity
  8
View006
100
AcDbCircle
 10
658.663
 20
323.459
 30
0
 40
1.5
100
AcDbArc
 50
0
 51
90
  0
LINE
  5
3EF
330
112
100
AcDbEntity
  8
View006
100
AcDbLine
 10
658.663
 20
324.959
 30
0
 11
653.663
 21
324.959
 31
0
  0
ARC
  5
3F0
330
112
100
AcDbEntity
  8
View006
100
AcDbCircle
 10
653.663
 20
323.459
 30
0
 40
1.5
100
AcDbArc
 50
90
 51
180
  0
LINE
  5
3F1
330
112
100
AcDbEntity
  8
View006
100
AcDbLine
 10
652.163
 20
323.459
 30
0
 11
652.163
 21
322.109
 31
0
  0
LINE
  5
3F2
330
112
100
AcDbEntity
  8
View006
100
AcDbLine
 10
652.163
 20
322.109
 30
0
 11
623.237
 21
322.109
 31
0
  0
LINE
  5
3F3
330
112
100
AcDbEntity
  8
View006
100
AcDbLine
 10
623.237
 20
323.459
 30
0
 11
623.237
 21
322.109
 31
0
  0
ARC
  5
3F4
330
112
100
AcDbEntity
  8
View006
100
AcDbCircle
 10
621.737
 20
323.459
 30
0
 40
1.5
100
AcDbArc
 50
0
 51
90
  0
LINE
  5
3F5
330
112
100
AcDbEntity
  8
View006
100
AcDbLine
 10
621.737
 20
324.959
 30
0
 11
616.737
 21
324.959
 31
0
  0
ARC
  5
3F6
330
112
100
AcDbEntity
  8
View006
100
AcDbCircle
 10
616.737
 20
323.459
 30
0
 40
1.5
100
AcDbArc
 50
90
 51
180
  0
LINE
  5
3F7
330
112
100
AcDbEntity
  8
View006
100
AcDbLine
 10
615.237
 20
323.459
 30
0
 11
615.237
 21
322.109
 31
0
  0
LINE
  5
3F8
330
112
100
AcDbEntity
  8
View006
100
AcDbLine
 10
615.237
 20
322.109
 30
0
 11
612.237
 21
322.109
 31
0
  0
LINE
  5
3F9
330
112
100
AcDbEntity
  8
View006
100
AcDbLine
 10
612.237
 20
322.109
 30
0
 11
612.237
 21
297.109
 31
0
  0
LINE
  5
3FA
330
112
100
AcDbEntity
  8
View006
100
AcDbLine
 10
615.237
 20
297.109
 30
0
 11
612.237
 21
297.109
 31
0
  0
LINE
  5
3FB
330
112
100
AcDbEntity
  8
View006
100
AcDbLine
 10
615.237
 20
295.759
 30
0
 11
615.237
 21
297.109
 31
0
  0
ARC
  5
3FC
330
112
100
AcDbEntity
  8
View006
100
AcDbCircle
 10
616.737
 20
295.759
 30
0
 40
1.5
100
AcDbArc
 50
180
 51
-90
  0
LINE
  5
3FD
330
112
100
AcDbEntity
  8
View006
100
AcDbLine
 10
616.737
 20
294.259
 30
0
 11
621.737
 21
294.259
 31
0
  0
ARC
  5
3FE
330
112
100
AcDbEntity
  8
View006
100
AcDbCircle
 10
621.737
 20
295.759
 30
0
 40
1.5
100
AcDbArc
 50
-90
 51
0
  0
LINE
  5
3FF
330
112
100
AcDbEntity
  8
View006
100
AcDbLine
 10
623.237
 20
295.759
 30
0
 11
623.237
 21
297.109
 31
0
  0
LINE
  5
400
330
112
100
AcDbEntity
  8
View006
100
AcDbLine
 10
623.237
 20
297.109
 30
0
 11
652.163
 21
297.109
 31
0
  0
LINE
  5
401
330
112
100
AcDbEntity
  8
View006
100
AcDbLine
 10
652.163
 20
295.759
 30
0
 11
652.163
 21
297.109
 31
0
  0
ARC
  5
402
330
112
100
AcDbEntity
  8
View006
100
AcDbCircle
 10
653.663
 20
295.759
 30
0
 40
1.5
100
AcDbArc
 50
180
 51
-90
  0
CIRCLE
  5
403
330
112
100
AcDbEntity
  8
View006
100
AcDbCircle
 10
619.487
 20
320.112
 40
0.58575
  0
CIRCLE
  5
404
330
112
100
AcDbEntity
  8
View006
100
AcDbCircle
 10
636.486
 20
320.112
 40
0.58575
  0
CIRCLE
  5
405
330
112
100
AcDbEntity
  8
View006
100
AcDbCircle
 10
636.486
 20
303.107
 40
0.58575
  0
CIRCLE
  5
406
330
112
100
AcDbEntity
  8
View006
100
AcDbCircle
 10
619.487
 20
303.107
 40
0.58575
  0
ARC
  5
407
330
112
100
AcDbEntity
  8
View007
100
AcDbCircle
 10
683.701
 20
366.297
 30
0
 40
5
100
AcDbArc
 50
30.5416
 51
-50.5416
  0
LINE
  5
408
330
112
100
AcDbEntity
  8
View007
100
AcDbLine
 10
688.008
 20
368.838
 30
0
 11
709.852
 21
364.986
 31
0
  0
ARC
  5
409
330
112
100
AcDbEntity
  8
View007
100
AcDbCircle
 10
707.706
 20
362.065
 30
0
 40
3.625
100
AcDbArc
 50
-73.7084
 51
53.7084
  0
LINE
  5
40A
330
112
100
AcDbEntity
  8
View007
100
AcDbLine
 10
686.879
 20
362.437
 30
0
 11
708.723
 21
358.585
 31
0
  0
LINE
  5
40B
330
112
100
AcDbEntity
  8
View007
100
AcDbLine
 10
685.156
 20
367.752
 30
0
 11
684.607
 21
367.595
 31
0
  0
LINE
  5
40C
330
112
100
AcDbEntity
  8
View007
100
AcDbLine
 10
685.156
 20
367.752
 30
0
 11
684.999
 21
367.203
 31
0
  0
ARC
  5
40D
330
112
100
AcDbEntity
  8
View007
100
AcDbCircle
 10
683.701
 20
366.297
 30
0
 40
1.5825
100
AcDbArc
 50
31.0814
 51
34.9186
  0
LINE
  5
40E
330
112
100
AcDbEntity
  8
View007
100
AcDbLine
 10
685.622
 20
367.035
 30
0
 11
685.057
 21
367.114
 31
0
  0
LINE
  5
40F
330
112
100
AcDbEntity
  8
View007
100
AcDbLine
 10
685.622
 20
367.035
 30
0
 11
685.255
 21
366.597
 31
0
  0
ARC
  5
410
330
112
100
AcDbEntity
  8
View007
100
AcDbCircle
 10
683.701
 20
366.297
 30
0
 40
1.5825
100
AcDbArc
 50
7.08144
 51
10.9186
  0
LINE
  5
411
330
112
100
AcDbEntity
  8
View007
100
AcDbLine
 10
685.756
 20
366.19
 30
0
 11
685.272
 21
366.492
 31
0
  0
LINE
  5
412
330
112
100
AcDbEntity
  8
View007
100
AcDbLine
 10
685.756
 20
366.19
 30
0
 11
685.243
 21
365.939
 31
0
  0
ARC
  5
413
330
112
100
AcDbEntity
  8
View007
100
AcDbCircle
 10
683.701
 20
366.297
 30
0
 40
1.5825
100
AcDbArc
 50
-16.9186
 51
-13.0814
  0
LINE
  5
414
330
112
100
AcDbEntity
  8
View007
100
AcDbLine
 10
685.535
 20
365.363
 30
0
 11
685.215
 21
365.837
 31
0
  0
LINE
  5
415
330
112
100
AcDbEntity
  8
View007
100
AcDbLine
 10
685.535
 20
365.363
 30
0
 11
684.964
 21
365.343
 31
0
  0
ARC
  5
416
330
112
100
AcDbEntity
  8
View007
100
AcDbCircle
 10
683.701
 20
366.297
 30
0
 40
1.5825
100
AcDbArc
 50
-40.9186
 51
-37.0814
  0
LINE
  5
417
330
112
100
AcDbEntity
  8
View007
100
AcDbLine
 10
684.996
 20
364.698
 30
0
 11
684.897
 21
365.261
 31
0
  0
LINE
  5
418
330
112
100
AcDbEntity
  8
View007
100
AcDbLine
 10
684.996
 20
364.698
 30
0
 11
684.467
 21
364.912
 31
0
  0
ARC
  5
419
330
112
100
AcDbEntity
  8
View007
100
AcDbCircle
 10
683.701
 20
366.297
 30
0
 40
1.5825
100
AcDbArc
 50
-64.9186
 51
-61.0814
  0
LINE
  5
41A
330
112
100
AcDbEntity
  8
View007
100
AcDbLine
 10
684.234
 20
364.31
 30
0
 11
684.372
 21
364.864
 31
0
  0
LINE
  5
41B
330
112
100
AcDbEntity
  8
View007
100
AcDbLine
 10
684.234
 20
364.31
 30
0
 11
683.837
 21
364.721
 31
0
  0
ARC
  5
41C
330
112
100
AcDbEntity
  8
View007
100
AcDbCircle
 10
683.701
 20
366.297
 30
0
 40
1.5825
100
AcDbArc
 50
-88.9186
 51
-85.0814
  0
LINE
  5
41D
330
112
100
AcDbEntity
  8
View007
100
AcDbLine
 10
683.379
 20
364.265
 30
0
 11
683.731
 21
364.715
 31
0
  0
LINE
  5
41E
330
112
100
AcDbEntity
  8
View007
100
AcDbLine
 10
683.379
 20
364.265
 30
0
 11
683.184
 21
364.802
 31
0
  0
ARC
  5
41F
330
112
100
AcDbEntity
  8
View007
100
AcDbCircle
 10
683.701
 20
366.297
 30
0
 40
1.5825
100
AcDbArc
 50
-112.919
 51
-109.081
  0
LINE
  5
420
330
112
100
AcDbEntity
  8
View007
100
AcDbLine
 10
682.581
 20
364.571
 30
0
 11
683.085
 21
364.84
 31
0
  0
LINE
  5
421
330
112
100
AcDbEntity
  8
View007
100
AcDbLine
 10
682.581
 20
364.571
 30
0
 11
682.62
 21
365.141
 31
0
  0
ARC
  5
422
330
112
100
AcDbEntity
  8
View007
100
AcDbCircle
 10
683.701
 20
366.297
 30
0
 40
1.5825
100
AcDbArc
 50
-136.919
 51
-133.081
  0
LINE
  5
423
330
112
100
AcDbEntity
  8
View007
100
AcDbLine
 10
681.975
 20
365.176
 30
0
 11
682.545
 21
365.216
 31
0
  0
LINE
  5
424
330
112
100
AcDbEntity
  8
View007
100
AcDbLine
 10
681.975
 20
365.176
 30
0
 11
682.244
 21
365.681
 31
0
  0
ARC
  5
425
330
112
100
AcDbEntity
  8
View007
100
AcDbCircle
 10
683.701
 20
366.297
 30
0
 40
1.5825
100
AcDbArc
 50
-160.919
 51
-157.081
  0
LINE
  5
426
330
112
100
AcDbEntity
  8
View007
100
AcDbLine
 10
681.669
 20
365.975
 30
0
 11
682.206
 21
365.78
 31
0
  0
LINE
  5
427
330
112
100
AcDbEntity
  8
View007
100
AcDbLine
 10
681.669
 20
365.975
 30
0
 11
682.119
 21
366.327
 31
0
  0
ARC
  5
428
330
112
100
AcDbEntity
  8
View007
100
AcDbCircle
 10
683.701
 20
366.297
 30
0
 40
1.5825
100
AcDbArc
 50
175.081
 51
178.919
  0
LINE
  5
429
330
112
100
AcDbEntity
  8
View007
100
AcDbLine
 10
681.714
 20
366.83
 30
0
 11
682.125
 21
366.433
 31
0
  0
LINE
  5
42A
330
112
100
AcDbEntity
  8
View007
100
AcDbLine
 10
681.714
 20
366.83
 30
0
 11
682.268
 21
366.968
 31
0
  0
ARC
  5
42B
330
112
100
AcDbEntity
  8
View007
100
AcDbCircle
 10
683.701
 20
366.297
 30
0
 40
1.5825
100
AcDbArc
 50
151.081
 51
154.919
  0
LINE
  5
42C
330
112
100
AcDbEntity
  8
View007
100
AcDbLine
 10
682.102
 20
367.592
 30
0
 11
682.316
 21
367.062
 31
0
  0
LINE
  5
42D
330
112
100
AcDbEntity
  8
View007
100
AcDbLine
 10
682.102
 20
367.592
 30
0
 11
682.665
 21
367.493
 31
0
  0
ARC
  5
42E
330
112
100
AcDbEntity
  8
View007
100
AcDbCircle
 10
683.701
 20
366.297
 30
0
 40
1.5825
100
AcDbArc
 50
127.081
 51
130.919
  0
LINE
  5
42F
330
112
100
AcDbEntity
  8
View007
100
AcDbLine
 10
682.767
 20
368.131
 30
0
 11
682.747
 21
367.56
 31
0
  0
LINE
  5
430
330
112
100
AcDbEntity
  8
View007
100
AcDbLine
 10
682.767
 20
368.131
 30
0
 11
683.241
 21
367.811
 31
0
  0
ARC
  5
431
330
112
100
AcDbEntity
  8
View007
100
AcDbCircle
 10
683.701
 20
366.297
 30
0
 40
1.5825
100
AcDbArc
 50
103.081
 51
106.919
  0
LINE
  5
432
330
112
100
AcDbEntity
  8
View007
100
AcDbLine
 10
683.594
 20
368.352
 30
0
 11
683.343
 21
367.839
 31
0
  0
LINE
  5
433
330
112
100
AcDbEntity
  8
View007
100
AcDbLine
 10
683.594
 20
368.352
 30
0
 11
683.896
 21
367.868
 31
0
  0
ARC
  5
434
330
112
100
AcDbEntity
  8
View007
100
AcDbCircle
 10
683.701
 20
366.297
 30
0
 40
1.5825
100
AcDbArc
 50
79.0814
 51
82.9186
  0
LINE
  5
435
330
112
100
AcDbEntity
  8
View007
100
AcDbLine
 10
684.439
 20
368.218
 30
0
 11
684.001
 21
367.851
 31
0
  0
LINE
  5
436
330
112
100
AcDbEntity
  8
View007
100
AcDbLine
 10
684.439
 20
368.218
 30
0
 11
684.518
 21
367.653
 31
0
  0
ARC
  5
437
330
112
100
AcDbEntity
  8
View007
100
AcDbCircle
 10
683.701
 20
366.297
 30
0
 40
1.5825
100
AcDbArc
 50
55.0814
 51
58.9186
  0
CIRCLE
  5
438
330
112
100
AcDbEntity
  8
View007
100
AcDbCircle
 10
707.706
 20
362.065
 40
0.66
  0
LINE
  5
439
330
112
100
AcDbEntity
  8
View008
100
AcDbLine
 10
682.156
 20
349.2
 30
0
 11
695.586
 21
327.898
 31
0
  0
ARC
  5
43A
330
112
100
AcDbEntity
  8
View008
100
AcDbCircle
 10
697.479
 20
330.989
 30
0
 40
3.625
100
AcDbArc
 50
-121.48
 51
5.93727
  0
LINE
  5
43B
330
112
100
AcDbEntity
  8
View008
100
AcDbLine
 10
701.085
 20
331.364
 30
0
 11
687.655
 21
352.667
 31
0
  0
ARC
  5
43C
330
112
100
AcDbEntity
  8
View008
100
AcDbCircle
 10
684.049
 20
352.292
 30
0
 40
3.625
100
AcDbArc
 50
5.93727
 51
-121.48
  0
CIRCLE
  5
43D
330
112
100
AcDbEntity
  8
View008
100
AcDbCircle
 10
697.479
 20
330.989
 40
0.66
  0
CIRCLE
  5
43E
330
112
100
AcDbEntity
  8
View008
100
AcDbCircle
 10
684.049
 20
352.292
 40
0.66
  0
CIRCLE
  5
43F
330
112
100
AcDbEntity
  8
View009
100
AcDbCircle
 10
683.507
 20
332.456
 40
3.625
  0
CIRCLE
  5
440
330
112
100
AcDbEntity
  8
View009
100
AcDbCircle
 10
683.507
 20
332.456
 40
0.66
  0
ENDSEC
  0
SECTION
  2
OBJECTS
  0
DICTIONARY
  5
500
330
0
100
AcDbDictionary
  3
ACAD_GROUP
350
501
  0
DICTIONARY
  5
501
330
500
100
AcDbDictionary
  0
ENDSEC
  0
EOF